Coordinates
version=1
nRows=22
nColumns=24
inDegrees=yes

Units are S.I. units (second, meters, Newtons, ...)
Angles are in degrees.

endheader
time	pelvis_tilt	pelvis_list	pelvis_rotation	pelvis_tx	pelvis_ty	pelvis_tz	hip_flexion_r	hip_adduction_r	hip_rotation_r	knee_angle_r	ankle_angle_r	subtalar_angle_r	mtp_angle_r	hip_flexion_l	hip_adduction_l	hip_rotation_l	knee_angle_l	ankle_angle_l	subtalar_angle_l	mtp_angle_l	lumbar_extension	lumbar_bending	lumbar_rotation
      0.49500000	      0.77387224	      4.23621422	      2.69509851	     -0.71014435	      0.98085006	      0.28744831	     27.29155592	     -3.27951418	     -4.49314686	    -16.11100421	      8.21442441	     -2.05308494	      0.61214554	    -16.70840506	      7.69031284	      6.74382896	     -5.00718373	     10.42566869	     -9.56863370	      0.03465375	     -4.07529835	     -2.15393250	     -1.20875243
      0.49916667	      0.72197368	      4.26906641	      2.74212242	     -0.70418612	      0.98025798	      0.28772893	     27.22759452	     -3.28316277	     -4.54335964	    -16.11088446	      8.01705719	     -2.20724915	      4.08530250	    -16.64373698	      7.69395931	      6.64022049	     -5.74258828	     10.55505792	     -9.22676423	     -0.89605746	     -3.96614910	     -2.19730299	     -1.20317862
      0.50333333	      0.69121172	      4.27572460	      2.80924218	     -0.69817055	      0.97974638	      0.28795964	     27.12616405	     -3.27383724	     -4.63903830	    -16.16541558	      7.84828357	     -2.09481019	      4.10896123	    -16.60342592	      7.66814679	      6.62192301	     -6.47690832	     10.64212397	     -9.05328127	     -0.86738319	     -3.89648268	     -2.18586235	     -1.32929146
      0.50750000	      0.63966246	      4.29096457	      2.84612293	     -0.69211921	      0.97921525	      0.28826137	     27.05789324	     -3.25621355	     -4.68617183	    -16.30109868	      7.70257135	     -2.08216693	      4.17205419	    -16.48134470	      7.65508125	      6.43597749	     -7.32501711	     10.75031652	     -8.69427258	     -0.78161385	     -3.77089469	     -2.20065663	     -1.41761617
      0.51166667	      0.59498475	      4.30573628	      2.89971158	     -0.68605091	      0.97874840	      0.28854255	     26.95968527	     -3.24103419	     -4.71382103	    -16.44847802	      7.46006515	     -2.10684821	      4.23823973	    -16.35063677	      7.64016189	      6.34117545	     -8.19901110	     10.79792107	     -8.42428053	     -0.67486045	     -3.65878110	     -2.21568650	     -1.45234362
      0.51583333	      0.53195386	      4.30121042	      2.92913356	     -0.67995364	      0.97826404	      0.28885760	     26.89795006	     -3.19677458	     -4.72147423	    -16.67966149	      7.22694960	     -2.20648372	      4.34133961	    -16.15720315	      7.61106695	      6.15474536	     -9.15789673	     10.85410731	     -8.08448256	     -0.49649160	     -3.52579706	     -2.19585961	     -1.49668161
      0.52000000	      0.52841161	      4.28496815	      2.97930117	     -0.67382797	      0.97793134	      0.28917324	     26.74030474	     -3.14362166	     -4.73716600	    -16.89922245	      6.93740117	     -2.36647056	      4.52411768	    -16.00144030	      7.55573392	      5.98913176	    -10.16146154	     10.87547515	     -7.70424275	     -0.15277292	     -3.46369256	     -2.17155606	     -1.51369600
      0.52416667	      0.45192304	      4.27241997	      3.00154207	     -0.66768020	      0.97751080	      0.28951059	     26.67638233	     -3.08515123	     -4.70707642	    -17.17652637	      6.61787670	     -2.47732647	      4.66292626	    -15.73614946	      7.52217294	      5.80979767	    -11.21992568	     10.82440300	     -7.44098726	      0.14122199	     -3.30157917	     -2.14585879	     -1.53402997
      0.52833333	      0.42280357	      4.24457880	      3.04400569	     -0.66150874	      0.97720494	      0.28985073	     26.54009415	     -3.01594507	     -4.69206520	    -17.45144297	      6.26747259	     -2.71239333	      4.90029218	    -15.48479018	      7.45517337	      5.60975503	    -12.34329685	     10.73228994	     -7.04711204	      0.70063449	     -3.19747353	     -2.10890887	     -1.51875710
      0.53250000	      0.34945875	      4.22664121	      3.05159782	     -0.65535190	      0.97684485	      0.29022361	     26.47667031	     -2.94575670	     -4.63195795	    -17.79222778	      5.91838418	     -2.85527881	      5.04973368	    -15.14632994	      7.41746526	      5.40082239	    -13.53589558	     10.62184355	     -6.80507233	      1.10850667	     -3.03942566	     -2.07685102	     -1.51285662
      0.53666667	      0.28507594	      4.18961920	      3.06669627	     -0.64918007	      0.97654470	      0.29060876	     26.38910136	     -2.85650591	     -4.57148162	    -18.12689042	      5.53536845	     -3.08094192	      5.19260183	    -14.77378412	      7.35012771	      5.16605785	    -14.80367922	     10.45694566	     -6.49136148	      1.56459436	     -2.89341456	     -2.02507926	     -1.48393438
      0.54083333	      0.24037219	      4.14872779	      3.09961321	     -0.64297750	      0.97633531	      0.29096622	     26.25361158	     -2.77380593	     -4.53694704	    -18.42568538	      5.07527819	     -3.21835707	      5.26673657	    -14.40595563	      7.27697991	      5.00634660	    -16.09165219	     10.15936893	     -6.27438760	      1.85720480	     -2.75451100	     -1.97597609	     -1.43203901
      0.54500000	      0.18808510	      4.07702151	      3.08662913	     -0.63679716	      0.97610771	      0.29143665	     26.15553347	     -2.62665134	     -4.40483602	    -18.79741016	      4.75649999	     -3.70924021	      6.45113033	    -13.96674415	      7.16351863	      4.68640866	    -17.46634258	      9.75587318	     -6.02869884	      7.01309906	     -2.62260036	     -1.87920608	     -1.34930272
      0.54916667	      0.14381666	      4.01816736	      3.10157100	     -0.63061938	      0.97593277	      0.29183638	     26.04882839	     -2.52915844	     -4.39595629	    -19.17482316	      4.36084675	     -3.74757628	      6.45192091	    -13.49548298	      7.06050082	      4.42893776	    -18.92361573	      9.40270841	     -5.70124959	      7.08263233	     -2.48900347	     -1.80854001	     -1.31126905
      0.55333333	      0.11089060	      3.92463265	      3.08863854	     -0.62447193	      0.97578123	      0.29232941	     25.94069328	     -2.36834664	     -4.30748993	    -19.58665479	      4.08334457	     -4.07891368	      6.45173228	    -12.97257883	      6.90740882	      4.06737598	    -20.47619664	      9.03878940	     -5.27996619	      7.28971475	     -2.38520839	     -1.68736378	     -1.23786399
      0.55750000	      0.05951625	      3.83462335	      3.08520597	     -0.61831837	      0.97565902	      0.29280210	     25.83432622	     -2.21952352	     -4.22258254	    -19.96031496	      3.76500340	     -4.27901338	      6.44555984	    -12.40214533	      6.75999717	      3.76565902	    -22.05876695	      8.50931977	     -4.99957224	      7.49925477	     -2.23410285	     -1.58317895	     -1.14821037
      0.56166667	      0.05283298	      3.68792111	      3.07450849	     -0.61219177	      0.97561479	      0.29336096	     25.68171918	     -1.99107250	     -4.09595891	    -20.35475059	      3.58972972	     -4.75840654	      6.41990716	    -11.82034419	      6.52356953	      3.38029160	    -23.72644197	      7.95922249	     -4.53413854	      8.08202709	     -2.16518005	     -1.40874300	     -1.04006244
      0.56583333	      0.01082343	      3.55964978	      3.05438424	     -0.60610038	      0.97553188	      0.29387391	     25.58353755	     -1.79593871	     -3.99938911	    -20.77040676	      3.35297268	     -5.00074400	      6.13432835	    -11.17155083	      6.32407590	      3.06079900	    -25.41570020	      7.21891481	     -4.42235031	     12.59259750	     -2.04138516	     -1.24986376	     -0.93041707
      0.57000000	     -0.00487794	      3.42690747	      3.02357592	     -0.60004243	      0.97548675	      0.29441569	     25.47598224	     -1.59993945	     -3.93782538	    -21.22474788	      3.19531287	     -5.08207830	      6.12411964	    -10.50288930	      6.10201816	      2.69449786	    -27.18055394	      6.50492474	     -4.08375346	     12.66680261	     -1.95921936	     -1.09407588	     -0.83606655
      0.57416667	     -0.00051543	      3.25039450	      2.99967816	     -0.59400645	      0.97549565	      0.29498560	     25.32845853	     -1.34964547	     -3.85020249	    -21.64846035	      3.10132305	     -5.30444368	      6.10129706	     -9.81287883	      5.81790637	      2.33249433	    -28.99587489	      5.72215692	     -3.77602538	     12.80884682	     -1.89880238	     -0.88636286	     -0.72188735
      0.57833333	      0.01009448	      3.06192112	      2.99102798	     -0.58801679	      0.97554887	      0.29556197	     25.16461784	     -1.08542995	     -3.75275047	    -22.05790887	      3.07719208	     -5.65556813	      6.04211171	     -9.09134347	      5.50776843	      1.99985659	    -30.84756625	      4.83282928	     -3.45550841	     13.12914182	     -1.85111152	     -0.67519993	     -0.58688927
      0.58250000	      0.00904678	      2.85739143	      2.95502494	     -0.58206949	      0.97556673	      0.29615412	     25.03417417	     -0.80376888	     -3.67073658	    -22.49816884	      3.08091721	     -5.78731776	      5.99248762	     -8.32234949	      5.18125982	      1.64977715	    -32.73914339	      3.91081341	     -3.25124003	     13.38062840	     -1.79409096	     -0.43019800	     -0.48073810
